name C:\Users\u0150099\Documents\master_thesis\3dpredictsim\Results\debug\Fal_s1_mtj_sc_cspx10_oy_o1x25_MTc_MTPm_k1_d01_MTJm_nl_MG_exp5_table_d01_PF_Gefen2002_ls146_FDB_ig21.mot
datacolumns 130
datarows 4
range 1.04620804 1.07759428
endheader
time	pelvis_tilt	pelvis_list	pelvis_rotation	pelvis_tx	pelvis_ty	pelvis_tz	hip_flexion_l	hip_adduction_l	hip_rotation_l	hip_flexion_r	hip_adduction_r	hip_rotation_r	knee_angle_l	knee_angle_r	ankle_angle_l	ankle_angle_r	subtalar_angle_l	subtalar_angle_r	mtj_angle_l	mtj_angle_r	mtp_angle_l	mtp_angle_r	lumbar_extension	lumbar_bending	lumbar_rotation	arm_flex_l	arm_add_l	arm_rot_l	arm_flex_r	arm_add_r	arm_rot_r	elbow_flex_l	elbow_flex_r	pro_sup_l	pro_sup_r	glut_med1_l/activation	glut_med2_l/activation	glut_med3_l/activation	glut_min1_l/activation	glut_min2_l/activation	glut_min3_l/activation	semimem_l/activation	semiten_l/activation	bifemlh_l/activation	bifemsh_l/activation	sar_l/activation	add_long_l/activation	add_brev_l/activation	add_mag1_l/activation	add_mag2_l/activation	add_mag3_l/activation	tfl_l/activation	pect_l/activation	grac_l/activation	glut_max1_l/activation	glut_max2_l/activation	glut_max3_l/activation	iliacus_l/activation	psoas_l/activation	quad_fem_l/activation	gem_l/activation	peri_l/activation	rect_fem_l/activation	vas_med_l/activation	vas_int_l/activation	vas_lat_l/activation	med_gas_l/activation	lat_gas_l/activation	soleus_l/activation	tib_post_l/activation	flex_dig_l/activation	flex_hal_l/activation	tib_ant_l/activation	per_brev_l/activation	per_long_l/activation	per_tert_l/activation	ext_dig_l/activation	ext_hal_l/activation	FDB_l/activation	ercspn_l/activation	intobl_l/activation	extobl_l/activation	glut_med1_r/activation	glut_med2_r/activation	glut_med3_r/activation	glut_min1_r/activation	glut_min2_r/activation	glut_min3_r/activation	semimem_r/activation	semiten_r/activation	bifemlh_r/activation	bifemsh_r/activation	sar_r/activation	add_long_r/activation	add_brev_r/activation	add_mag1_r/activation	add_mag2_r/activation	add_mag3_r/activation	tfl_r/activation	pect_r/activation	grac_r/activation	glut_max1_r/activation	glut_max2_r/activation	glut_max3_r/activation	iliacus_r/activation	psoas_r/activation	quad_fem_r/activation	gem_r/activation	peri_r/activation	rect_fem_r/activation	vas_med_r/activation	vas_int_r/activation	vas_lat_r/activation	med_gas_r/activation	lat_gas_r/activation	soleus_r/activation	tib_post_r/activation	flex_dig_r/activation	flex_hal_r/activation	tib_ant_r/activation	per_brev_r/activation	per_long_r/activation	per_tert_r/activation	ext_dig_r/activation	ext_hal_r/activation	FDB_r/activation	ercspn_r/activation	intobl_r/activation	extobl_r/activation	
          1.04620804	         -2.92690574	         -1.90529280	          5.12579109	          1.39145669	          0.90421192	         -0.00645564	        -12.85982807	          0.85690289	         -3.15717636	         29.96296222	          1.91633537	         -7.01032891	        -18.31724367	        -17.24966037	         -5.17737433	          6.91010327	        -14.77643389	         -4.92218548	          5.88941267	          5.24515195	         28.01126085	          2.86966660	         -3.97978296	          0.75924946	         -1.18440168	          4.68396714	        -13.65119570	         19.23827521	         -4.05483900	        -13.46610459	          8.47164692	         35.55034517	         21.54405140	         86.51662706	         86.51662706	          0.12093028	          0.05000009	          0.05000005	          0.25496518	          0.09288414	          0.05000019	          0.05000036	          0.05000005	          0.05000005	          0.05000002	          0.05000030	          0.24797498	          0.08366573	          0.05000090	          0.05000327	          0.05000589	          0.30788766	          0.05000433	          0.05000013	          0.05000128	          0.05000088	          0.05000095	          0.24153421	          0.65027426	          0.05000006	          0.05000013	          0.05000010	          0.55544856	          0.18614636	          0.18313556	          0.15433001	          0.36182917	          0.59104105	          0.13091858	          0.48929331	          0.94900205	          0.98240489	          0.12478119	          0.57428600	          0.44661373	          0.05000004	          0.05000000	          0.05000003	          0.76034088	          0.05000000	          0.05000001	          0.05000000	          0.05000005	          0.05000005	          0.05000080	          0.05000004	          0.05000006	          0.05000026	          0.28934883	          0.17039098	          0.37001068	          0.12767940	          0.11168443	          0.15034798	          0.16700140	          0.06693362	          0.05000060	          0.22484454	          0.05871484	          0.09838109	          0.26008353	          0.05000031	          0.05000025	          0.25771892	          0.12968326	          0.13115561	          0.22384959	          0.05477683	          0.05000009	          0.05000001	          0.05000001	          0.05000001	          0.05000001	          0.06660668	          0.05891006	          0.05169290	          0.13728065	          0.05000043	          0.06699084	          0.49347610	          0.14687727	          0.18080865	          0.51228105	          0.58642874	          0.17580671	          0.17363842	          0.06725877	          0.15623907	          0.07165567	
          1.05667012	         -2.92958550	         -1.94743329	          5.41281368	          1.40793346	          0.90224262	         -0.00595463	        -13.90422243	          0.50907457	         -3.53585098	         30.19511930	          2.11963843	         -7.04677559	        -18.03390500	        -18.50298650	         -6.48549939	          6.61502000	        -14.54662939	         -5.26334144	          5.69921167	          5.29227243	         29.52892545	          2.71822572	         -3.84267797	          0.88511036	         -1.31960980	          4.50912693	        -13.61811858	         19.33972833	         -4.82704019	        -13.45073041	          8.05303703	         36.45298486	         21.10829562	         86.51662706	         86.51662706	          0.10297479	          0.05000003	          0.05000001	          0.21710845	          0.07909292	          0.05000014	          0.05000093	          0.05000008	          0.05000006	          0.05000010	          0.05000029	          0.26609935	          0.38161160	          0.05000063	          0.05000254	          0.06561187	          0.26217317	          0.07697950	          0.05000016	          0.05000046	          0.05000032	          0.05000035	          0.20567166	          0.63944438	          0.05000002	          0.05000012	          0.05000017	          0.47297660	          0.16272940	          0.16188016	          0.13610942	          0.33373914	          0.54520294	          0.12561949	          0.41664394	          0.96995560	          0.98963451	          0.30477292	          0.48901724	          0.40634237	          0.35153398	          0.05000000	          0.05000002	          0.64744687	          0.05000001	          0.05000000	          0.05871840	          0.05871831	          0.05000106	          0.05000001	          0.05871840	          0.05871838	          0.05000048	          0.24638685	          0.14509165	          0.31507218	          0.10872181	          0.09510180	          0.21392710	          0.36558050	          0.05699562	          0.05000607	          0.25251496	          0.05000008	          0.08844410	          0.22146718	          0.05000006	          0.05000003	          0.32932064	          0.11042816	          0.11168192	          0.47525045	          0.21712272	          0.09594321	          0.05000000	          0.05000000	          0.05000000	          0.05000000	          0.05671704	          0.05016321	          0.05000000	          0.19641699	          0.05000022	          0.08098079	          0.44581579	          0.12506923	          0.15396254	          0.43621885	          0.58482371	          0.18082926	          0.29150086	          0.05727232	          0.13387688	          0.06101638	
          1.06713220	         -2.93017115	         -1.98715492	          5.65868169	          1.42460864	          0.90013302	         -0.00540956	        -14.80081050	          0.15833667	         -3.86590978	         30.41075583	          2.29339675	         -7.08033268	        -18.07457062	        -20.40585906	         -7.68648838	          6.04744983	        -14.23294360	         -5.63143885	          5.53472730	          5.28006436	         30.60772236	          2.53845319	         -3.70117824	          1.01806906	         -1.44834717	          4.25356740	        -13.59898231	         19.38454431	         -5.60054087	        -13.45303260	          7.80218941	         37.40555057	         20.69123957	         86.51662706	         86.51662706	          0.08768530	          0.05871846	          0.05871848	          0.18487261	          0.06734940	          0.05871849	          0.05000181	          0.05871937	          0.05871961	          0.05000056	          0.05000862	          0.41090882	          0.54242581	          0.39303163	          0.17598165	          0.15827286	          0.22324627	          0.06555038	          0.06792753	          0.05872099	          0.05872415	          0.06895754	          0.17513392	          0.66981328	          0.06895699	          0.05871861	          0.05871846	          0.40274992	          0.15317364	          0.15403780	          0.13227490	          0.30322846	          0.49638718	          0.12223852	          0.35478142	          0.90438414	          0.99389355	          0.47148721	          0.41640892	          0.36260660	          0.61798131	          0.05000000	          0.05000001	          0.55131515	          0.07769974	          0.05871837	          0.05000002	          0.05000000	          0.05000000	          0.09346220	          0.05000001	          0.05000001	          0.05000002	          0.20980379	          0.12354872	          0.26829084	          0.09257900	          0.08098131	          0.18216365	          0.33938175	          0.43908675	          0.30724402	          0.33308210	          0.05000014	          0.07531301	          0.18858416	          0.05000012	          0.15034056	          0.44050135	          0.09403200	          0.09509960	          0.69086398	          0.18488477	          0.08169792	          0.06895700	          0.05000013	          0.05000011	          0.12187036	          0.06895700	          0.06895700	          0.06895700	          0.16725338	          0.05871854	          0.06895698	          0.56010324	          0.10649922	          0.18464364	          0.66787004	          0.64654217	          0.28801156	          0.24821936	          0.05314294	          0.11399909	          0.05195679	
          1.07759428	         -2.92902566	         -2.02476986	          5.86257925	          1.44137869	          0.89792914	         -0.00485725	        -15.49963940	         -0.18986068	         -4.12338266	         30.48667173	          2.39128672	         -7.05337141	        -18.52786192	        -22.41988529	         -8.67852532	          5.69558837	        -13.80427398	         -6.09507507	          5.38495986	          5.33611765	         31.00918601	          2.31844284	         -3.56049090	          1.15733030	         -1.56926073	          3.92757355	        -13.59291592	         19.38241683	         -6.34489517	        -13.47655967	          7.72909172	         38.41904415	         20.25532054	         86.51662706	         86.51662706	          0.13371663	          0.05000007	          0.05000008	          0.15742326	          0.05734958	          0.05000012	          0.05000096	          0.05000089	          0.05000107	          0.05000003	          0.05000014	          0.37936142	          0.50461845	          0.33467507	          0.14985262	          0.13477315	          0.27519999	          0.05581791	          0.05784182	          0.05000256	          0.05000511	          0.05871900	          0.18759573	          0.80548324	          0.05871839	          0.05000020	          0.05000007	          0.34295039	          0.13043102	          0.13116671	          0.11263522	          0.26555580	          0.42268975	          0.12742374	          0.30210413	          0.77010293	          0.87638493	          0.54270417	          0.43832229	          0.31196883	          0.77494846	          0.10814770	          0.05000001	          0.46945690	          0.11506500	          0.05000000	          0.05000004	          0.38798724	          0.43556634	          0.45585015	          0.44034421	          0.44034415	          0.44034353	          0.17865251	          0.10520447	          0.22845551	          0.07883304	          0.06895737	          0.15511634	          0.28899104	          0.37389200	          0.29769553	          0.37453105	          0.05000038	          0.06413079	          0.16058358	          0.28877762	          0.30108525	          0.51372079	          0.08007030	          0.08097939	          0.58828577	          0.15743345	          0.16225648	          0.05871840	          0.05000026	          0.05138765	          0.10377530	          0.05871839	          0.05871839	          0.05871839	          0.21472080	          0.05000022	          0.05871840	          0.55555532	          0.13145590	          0.15722811	          0.70964927	          0.65474915	          0.28611240	          0.55711742	          0.09808293	          0.13499103	          0.05000000	
